PathFileType	4	(X/Y/Z)	/Users/itak/Documents/Research/Walk-IL/dataset/trc/00194_00008.trc
DataRate	CameraRate	NumFrames	NumMarkers	Units	OrigDataRate	OrigDataStartFrame	OrigNumFrames
100.000000	100.000000	4	53	mm	100.000000	405	810
Frame#	Time	RPSI			LPSI			L3			STRN			T10			C7			CLAV			RBAK			LBAK			LSHO			LUPA			LAEL			LAOL			LWTS			LWPS			LFRA			LIFD			LHPS			LHTS			RSHO			RUPA			RAEL			RAOL			RWTS			RWPS			RFRA			RIFD			RHTS			RHPS			RBHD			LFHD			RFHD			LBHD			LHIP			RHIP			RASI			LASI			LKNE			LTHI			LANK			LTIP			LTOE			LMT1			LMT5			LHEE			RKNE			RTHI			RANK			RTIP			RTOE			RMT1			RMT5			RHEE			
		X1	Y1	Z1	X2	Y2	Z2	X3	Y3	Z3	X4	Y4	Z4	X5	Y5	Z5	X6	Y6	Z6	X7	Y7	Z7	X8	Y8	Z8	X9	Y9	Z9	X10	Y10	Z10	X11	Y11	Z11	X12	Y12	Z12	X13	Y13	Z13	X14	Y14	Z14	X15	Y15	Z15	X16	Y16	Z16	X17	Y17	Z17	X18	Y18	Z18	X19	Y19	Z19	X20	Y20	Z20	X21	Y21	Z21	X22	Y22	Z22	X23	Y23	Z23	X24	Y24	Z24	X25	Y25	Z25	X26	Y26	Z26	X27	Y27	Z27	X28	Y28	Z28	X29	Y29	Z29	X30	Y30	Z30	X31	Y31	Z31	X32	Y32	Z32	X33	Y33	Z33	X34	Y34	Z34	X35	Y35	Z35	X36	Y36	Z36	X37	Y37	Z37	X38	Y38	Z38	X39	Y39	Z39	X40	Y40	Z40	X41	Y41	Z41	X42	Y42	Z42	X43	Y43	Z43	X44	Y44	Z44	X45	Y45	Z45	X46	Y46	Z46	X47	Y47	Z47	X48	Y48	Z48	X49	Y49	Z49	X50	Y50	Z50	X51	Y51	Z51	X52	Y52	Z52	X53	Y53	Z53	

406	4.05	-394.5359802246094	1040.751342773438	-573.3296508789062	-438.8076782226562	1050.099853515625	-688.9623413085938	-414.1050720214844	1083.867797851562	-630.0220947265625	-157.0827789306641	1286.945678710938	-722.2196655273438	-442.0508728027344	1245.98291015625	-626.7633666992188	-365.5726928710938	1510.175537109375	-653.6248168945312	-179.5230865478516	1402.499877929688	-719.36376953125	-405.9595336914062	1336.127075195312	-533.8382568359375	-410.5028991699219	1492.4833984375	-746.9652709960938	-361.0451354980469	1483.688720703125	-844.3804931640625	-417.1988220214844	1360.76220703125	-916.7030029296875	-399.9730224609375	1153.983154296875	-979.8908081054688	-413.9048156738281	1117.62158203125	-900.2924194335938	-247.6416778564453	958.511962890625	-1046.359497070312	-334.3247375488281	918.8217163085938	-1055.986450195312	-376.3439025878906	1051.91943359375	-1021.985046386719	-190.5128784179688	791.5032348632812	-1068.501953125	-299.7110900878906	858.284912109375	-1077.556884765625	-234.2218170166016	888.4012451171875	-1088.628784179688	-252.4643402099609	1480.389770507812	-504.4963989257812	-254.73095703125	1412.905029296875	-435.0773010253906	-266.0139465332031	1125.291381835938	-376.692626953125	-293.4134216308594	1117.736206054688	-470.9968872070312	-116.87841796875	912.313232421875	-435.9303894042969	-176.3468627929688	884.9136352539062	-376.2042541503906	-232.506103515625	1053.146728515625	-366.8049011230469	-89.06752777099609	730.405029296875	-477.0420837402344	-79.15636444091797	822.8931274414062	-438.4559936523438	-141.6088409423828	805.4736938476562	-390.2638854980469	-288.5682983398438	1656.213745117188	-596.8662109375	-142.9515380859375	1716.055297851562	-748.6346435546875	-122.6644897460938	1698.602416992188	-621.4976806640625	-319.2038269042969	1682.362060546875	-729.5703125	-389.7381591796875	992.7115478515625	-836.9703979492188	-212.5182800292969	991.2473754882812	-510.6089172363281	-157.6925659179688	1021.129943847656	-590.7947387695312	-250.0105743408203	1022.7392578125	-832.118896484375	-391.8634338378906	494.1216735839844	-797.6351928710938	-388.6002807617188	637.9127807617188	-827.602294921875	-506.1415710449219	38.72423934936523	-740.2145385742188	-448.0756225585938	271.0637817382812	-782.654541015625	-296.9801330566406	40.0891227722168	-817.3809204101562	-320.7043762207031	44.28791809082031	-752.3790893554688	-428.9864807128906	33.36863327026367	-822.8259887695312	-521.5115966796875	40.06864166259766	-656.3471069335938	-34.9862060546875	533.1130981445312	-623.5880737304688	-107.9775619506836	788.0284423828125	-544.0254516601562	-92.27290344238281	36.97692489624023	-687.3364868164062	-18.33557891845703	413.240234375	-655.2738647460938	104.4741744995117	101.8233947753906	-735.0939331054688	54.59749984741211	83.33893585205078	-777.1552734375	19.07809257507324	49.25494384765625	-664.9339599609375	-149.6826324462891	40.42055892944336	-749.1535034179688	
407	4.06	-387.689697265625	1038.725219726562	-576.6251220703125	-431.6880493164062	1048.279052734375	-692.3757934570312	-407.3877258300781	1082.026245117188	-633.2628173828125	-149.4944915771484	1285.14501953125	-724.0453491210938	-435.1451416015625	1244.512939453125	-630.3607788085938	-358.0765075683594	1508.507446289062	-656.8214111328125	-171.6291656494141	1400.796630859375	-721.2262573242188	-399.5831604003906	1334.568603515625	-537.2805786132812	-402.3490600585938	1490.950439453125	-750.4979858398438	-352.0583190917969	1482.282348632812	-847.5122680664062	-407.2900695800781	1359.612182617188	-920.7935180664062	-388.6104431152344	1153.171752929688	-984.8931274414062	-403.4229125976562	1116.344360351562	-905.7009887695312	-234.4512481689453	958.8284301757812	-1050.389038085938	-320.89697265625	918.7105102539062	-1061.415405273438	-363.9766540527344	1051.3955078125	-1027.20947265625	-175.7073974609375	793.3642578125	-1072.021484375	-285.5192565917969	858.43798828125	-1082.84765625	-220.1087493896484	889.0601196289062	-1092.901000976562	-246.0250854492188	1478.5048828125	-506.8325805664062	-248.9040374755859	1410.849731445312	-437.5807189941406	-261.6824951171875	1123.072387695312	-380.6626892089844	-287.8477172851562	1115.92041015625	-475.2667236328125	-113.3524475097656	909.0686645507812	-438.1988830566406	-173.6094207763672	882.199951171875	-379.164306640625	-228.6725158691406	1050.829467773438	-370.5064697265625	-86.64788818359375	726.8430786132812	-478.9914245605469	-76.31533050537109	819.2984619140625	-440.3397521972656	-139.3722076416016	802.4680786132812	-392.84765625	-282.0516052246094	1654.227783203125	-599.5117797851562	-134.6260986328125	1714.313110351562	-749.3683471679688	-115.8932189941406	1696.712158203125	-621.99609375	-311.0546264648438	1680.53466796875	-732.5465087890625	-382.0625915527344	991.3218994140625	-840.2584838867188	-205.9692535400391	989.551025390625	-513.4424438476562	-150.8211669921875	1019.590637207031	-593.2889404296875	-242.251220703125	1021.38818359375	-834.8403930664062	-388.7314147949219	493.5828247070312	-798.6432495117188	-383.7979431152344	637.1590576171875	-829.4041137695312	-506.0436401367188	38.94664001464844	-740.0894775390625	-446.5582275390625	271.1123352050781	-783.1937866210938	-296.9386596679688	39.98517608642578	-817.4923706054688	-320.6688232421875	44.29277420043945	-752.5202026367188	-429.0173950195312	33.29708099365234	-822.8717651367188	-521.3715209960938	40.44107818603516	-656.24462890625	-28.09416389465332	531.6732177734375	-624.9674682617188	-101.1951675415039	786.4727172851562	-545.728515625	-63.74337005615234	34.9852180480957	-696.1948852539062	-7.116570472717285	413.4331359863281	-657.6594848632812	131.1235656738281	106.9236068725586	-740.78515625	82.26808166503906	87.45722198486328	-783.5880737304688	46.79273986816406	50.64064407348633	-672.3548583984375	-120.3927536010742	36.97502517700195	-758.7323608398438	
408	4.07	-380.7695617675781	1036.5400390625	-579.7994995117188	-424.4965515136719	1046.294921875	-695.6322631835938	-400.5692138671875	1080.023315429688	-636.3501586914062	-141.8453979492188	1283.237548828125	-725.8251953125	-428.1430969238281	1242.91650390625	-633.7858276367188	-350.4897155761719	1506.716918945312	-659.872314453125	-163.6793823242188	1398.98388671875	-723.023193359375	-393.0294799804688	1332.8857421875	-540.5581665039062	-394.1276550292969	1489.297607421875	-753.8710327148438	-343.0530090332031	1480.758666992188	-850.4910278320312	-397.3531494140625	1358.353149414062	-924.7020263671875	-377.2362670898438	1152.243408203125	-989.6424560546875	-392.9183044433594	1114.978637695312	-910.856689453125	-221.4334564208984	958.8859252929688	-1054.142211914062	-307.6500854492188	918.4173583984375	-1066.496459960938	-351.6695556640625	1050.731323242188	-1032.14013671875	-161.3099060058594	794.7955322265625	-1075.197509765625	-271.5886535644531	858.3809814453125	-1087.762817382812	-206.2403259277344	889.4141235351562	-1096.84619140625	-239.4199371337891	1476.517333984375	-509.0839233398438	-242.8839874267578	1408.703857421875	-439.9979248046875	-257.1236572265625	1120.787353515625	-384.5248718261719	-282.1676025390625	1114.04443359375	-479.429931640625	-109.7586288452148	905.6768798828125	-440.3597412109375	-170.8011322021484	879.3877563476562	-382.0158996582031	-224.6585845947266	1048.4287109375	-374.0899047851562	-84.29843139648438	723.1139526367188	-480.8148803710938	-73.49703216552734	815.5203247070312	-442.1272888183594	-137.14208984375	799.3466796875	-395.3232727050781	-275.4010314941406	1652.115112304688	-602.0701293945312	-126.241096496582	1712.428100585938	-750.0540161132812	-109.0204925537109	1694.715454101562	-622.4658813476562	-302.8268737792969	1678.57177734375	-735.4147338867188	-374.3691101074219	989.8565673828125	-843.424560546875	-199.2073059082031	987.696533203125	-516.2901611328125	-143.7652587890625	1017.968444824219	-595.8351440429688	-234.4151306152344	1020.021179199219	-837.5911254882812	-385.4008178710938	493.07080078125	-799.6932983398438	-378.9027404785156	636.405517578125	-831.195556640625	-505.9183044433594	39.21539306640625	-739.9403686523438	-445.0057678222656	271.2088623046875	-783.7340087890625	-296.9126892089844	39.87185668945312	-817.6163940429688	-320.6321105957031	44.29931640625	-752.6806030273438	-429.0450744628906	33.22511672973633	-822.910888671875	-521.1992797851562	40.87517547607422	-656.1089477539062	-21.38717460632324	529.9142456054688	-626.3241577148438	-94.33137512207031	784.6693115234375	-547.5440063476562	-35.92671585083008	33.58316802978516	-704.2543334960938	3.742085456848145	413.5086059570312	-659.8746948242188	156.9149627685547	112.3997039794922	-745.6388549804688	109.1146850585938	91.98200988769531	-789.1480712890625	73.72090911865234	52.54872131347656	-678.8915405273438	-91.77216339111328	34.32101058959961	-767.4476318359375	
409	4.08	-373.7811889648438	1034.200561523438	-582.8560180664062	-417.2239685058594	1044.155029296875	-698.734619140625	-393.6181030273438	1077.863159179688	-639.2965087890625	-134.1294555664062	1281.2255859375	-727.5624389648438	-421.045166015625	1241.192504882812	-637.0473022460938	-342.8084411621094	1504.8134765625	-662.7762451171875	-155.6683044433594	1397.06298828125	-724.7595825195312	-386.3032531738281	1331.072631835938	-543.6736450195312	-385.8401794433594	1487.532104492188	-757.088623046875	-334.0272521972656	1479.117309570312	-853.3240966796875	-387.3933715820312	1356.973388671875	-928.4259643554688	-365.8668212890625	1151.186279296875	-994.1371459960938	-382.4031982421875	1113.514892578125	-915.75830078125	-208.5829620361328	958.6767578125	-1057.626220703125	-294.5837707519531	917.9320678710938	-1071.233520507812	-339.4307250976562	1049.91650390625	-1036.778686523438	-147.3457489013672	795.7482299804688	-1078.069213867188	-257.9242248535156	858.1016235351562	-1092.31298828125	-192.6037902832031	889.4627075195312	-1100.474365234375	-232.6492462158203	1474.419311523438	-511.2471008300781	-236.6681823730469	1406.45947265625	-442.3213195800781	-252.3361206054688	1118.42529296875	-388.2428588867188	-276.3883666992188	1112.086059570312	-483.4471435546875	-106.0773773193359	902.15869140625	-442.4071044921875	-167.9007720947266	876.479736328125	-384.7507934570312	-220.4689025878906	1045.931274414062	-377.5246887207031	-81.96936798095703	719.2527465820312	-482.5320739746094	-70.66611480712891	811.5916137695312	-443.8232421875	-134.8803863525391	796.1192626953125	-397.6937866210938	-268.605224609375	1649.8779296875	-604.5357055664062	-117.7922592163086	1710.416381835938	-750.68701171875	-102.0234298706055	1692.628173828125	-622.9110717773438	-294.51953125	1676.490844726562	-738.1742553710938	-366.6478271484375	988.318603515625	-846.4683837890625	-192.2351531982422	985.6865844726562	-519.139892578125	-136.5069885253906	1016.262573242188	-598.42236328125	-226.5444793701172	1018.615417480469	-840.3282470703125	-381.8525085449219	492.5757446289062	-800.7998657226562	-373.8819885253906	635.6533813476562	-832.9776611328125	-505.7601013183594	39.5342903137207	-739.7666625976562	-443.4078063964844	271.3556213378906	-784.2749633789062	-296.8961791992188	39.7526969909668	-817.75048828125	-320.5885620117188	44.30524063110352	-752.8535766601562	-429.0620422363281	33.15812301635742	-822.938232421875	-520.9908447265625	41.38846206665039	-655.935791015625	-14.76709175109863	527.9024658203125	-627.7001342773438	-87.37216186523438	782.6375732421875	-549.4827270507812	-9.014802932739258	32.72704696655273	-711.510498046875	14.28248882293701	413.5055236816406	-661.9607543945312	181.6951751708984	118.2015838623047	-749.6152954101562	134.9938201904297	96.82189178466797	-793.8047485351562	99.68634796142578	54.96543121337891	-684.5057983398438	-64.03216552734375	32.39730834960938	-775.2606811523438	
